<svg width="22" height="23" viewBox="0 0 22 23" fill="none" xmlns="http://www.w3.org/2000/svg">
<path fill-rule="evenodd" clip-rule="evenodd" d="M5.10273 5.91153C5.10273 2.79695 7.62759 0.272095 10.7422 0.272095C13.8567 0.272095 16.3816 2.79695 16.3816 5.91153C16.3816 9.0261 13.8567 11.551 10.7422 11.551C7.62759 11.551 5.10273 9.0261 5.10273 5.91153ZM10.7422 2.26248C8.72685 2.26248 7.09312 3.89621 7.09312 5.91153C7.09312 7.92684 8.72685 9.56057 10.7422 9.56057C12.7575 9.56057 14.3912 7.92684 14.3912 5.91153C14.3912 3.89621 12.7575 2.26248 10.7422 2.26248Z" fill="#C2C3CB"/>
<path fill-rule="evenodd" clip-rule="evenodd" d="M5.43446 15.5317C3.78557 15.5317 2.44888 16.8684 2.44888 18.5173V20.0941C2.44888 20.1181 2.46628 20.1385 2.48998 20.1424C7.95526 21.0347 13.5291 21.0347 18.9944 20.1424C19.018 20.1385 19.0354 20.1181 19.0354 20.0941V18.5173C19.0354 16.8684 17.6988 15.5317 16.0499 15.5317H15.5976C15.5626 15.5317 15.5278 15.5373 15.4946 15.5481L14.3461 15.9231C12.0043 16.6878 9.48001 16.6878 7.13821 15.9231L5.98974 15.5481C5.9565 15.5373 5.92174 15.5317 5.88677 15.5317H5.43446ZM0.458496 18.5173C0.458496 15.7692 2.68631 13.5413 5.43446 13.5413H5.88677C6.13158 13.5413 6.37485 13.5801 6.60756 13.656L7.75603 14.0311C9.69638 14.6646 11.788 14.6646 13.7283 14.0311L14.8768 13.656C15.1095 13.5801 15.3527 13.5413 15.5976 13.5413H16.0499C18.798 13.5413 21.0258 15.7692 21.0258 18.5173V20.0941C21.0258 21.0936 20.3015 21.9458 19.3151 22.1068C13.6374 23.0338 7.84695 23.0338 2.16926 22.1068C1.18284 21.9458 0.458496 21.0936 0.458496 20.0941V18.5173Z" fill="#C2C3CB"/>
</svg>
