<svg width="23" height="20" viewBox="0 0 23 20" fill="none" xmlns="http://www.w3.org/2000/svg">
<path fill-rule="evenodd" clip-rule="evenodd" d="M20.8472 1.69818C21.1728 1.37256 21.1728 0.844621 20.8472 0.518998C20.5215 0.193374 19.9936 0.193374 19.668 0.518998L1.88001 18.307C1.55439 18.6326 1.55439 19.1605 1.88001 19.4862C2.20564 19.8118 2.73358 19.8118 3.0592 19.4862L6.22423 16.3211C7.74322 17.0362 9.49273 17.5069 11.3636 17.5069C14.3475 17.5069 17.0228 16.3094 18.9464 14.8331C19.91 14.0935 20.7058 13.2684 21.268 12.4583C21.8147 11.6705 22.2031 10.806 22.2031 10.0026C22.2031 9.19911 21.8147 8.33463 21.268 7.54689C20.7058 6.73675 19.91 5.91166 18.9464 5.17207C18.6549 4.9484 18.3463 4.73114 18.0219 4.52347L20.8472 1.69818ZM16.8106 5.73471L14.8419 7.70343C15.2784 8.3625 15.5326 9.15285 15.5326 10.0026C15.5326 12.3051 13.6661 14.1716 11.3636 14.1716C10.5139 14.1716 9.72352 13.9174 9.06445 13.4809L7.48941 15.0559C8.67401 15.5385 9.98738 15.8393 11.3636 15.8393C13.9057 15.8393 16.2333 14.8132 17.931 13.5102C18.7781 12.8601 19.4476 12.1565 19.898 11.5075C20.364 10.8361 20.5355 10.3109 20.5355 10.0026C20.5355 9.69429 20.364 9.16908 19.898 8.49766C19.4476 7.84862 18.7781 7.14507 17.931 6.49497C17.5829 6.22775 17.2082 5.97218 16.8106 5.73471ZM10.2851 12.2602C10.6117 12.4165 10.9774 12.504 11.3636 12.504C12.7451 12.504 13.865 11.3841 13.865 10.0026C13.865 9.6164 13.7775 9.25066 13.6212 8.92411L10.2851 12.2602Z" fill="#C2C3CB"/>
<path d="M11.3636 2.49828C12.5113 2.49828 13.6133 2.67542 14.6445 2.97746C14.8429 3.03556 14.902 3.28386 14.7558 3.43003L13.8391 4.34673C13.7704 4.41549 13.6707 4.44304 13.5759 4.42123C12.8651 4.25769 12.1239 4.1659 11.3636 4.1659C8.82153 4.1659 6.49389 5.19195 4.79613 6.49497C3.94909 7.14507 3.27959 7.84862 2.82917 8.49766C2.36322 9.16908 2.19167 9.69429 2.19167 10.0026C2.19167 10.3109 2.36322 10.8361 2.82917 11.5075C3.22254 12.0743 3.783 12.6827 4.48289 13.2608C4.61168 13.3672 4.62396 13.5619 4.50584 13.68L3.71771 14.4681C3.6173 14.5685 3.4571 14.5773 3.3483 14.4861C2.57788 13.84 1.93488 13.1438 1.45914 12.4583C0.91246 11.6705 0.524048 10.806 0.524048 10.0026C0.524048 9.19911 0.91246 8.33463 1.45914 7.54689C2.02136 6.73675 2.81716 5.91166 3.78081 5.17207C5.70441 3.69572 8.37964 2.49828 11.3636 2.49828Z" fill="#C2C3CB"/>
<path d="M11.3636 5.83352C11.4953 5.83352 11.6256 5.83963 11.7542 5.85157C11.973 5.87191 12.0523 6.13359 11.8968 6.28901L10.5491 7.63674C9.82279 7.88673 9.24775 8.46178 8.99775 9.18809L7.65002 10.5358C7.4946 10.6912 7.23292 10.612 7.21259 10.3932C7.20064 10.2646 7.19454 10.1343 7.19454 10.0026C7.19454 7.70007 9.06108 5.83352 11.3636 5.83352Z" fill="#C2C3CB"/>
</svg>
