<svg width="23" height="23" viewBox="0 0 23 23" fill="none" xmlns="http://www.w3.org/2000/svg">
<path d="M16.5333 7.08984C16.0352 6.17672 15.3504 5.48151 14.4787 5.0042C13.6071 4.52689 12.5903 4.28823 11.4281 4.28823C10.1414 4.28823 9.00005 4.57877 8.00393 5.15984C7.0078 5.74092 6.22958 6.57102 5.66926 7.65016C5.10894 8.7293 4.82878 9.97445 4.82878 11.3856C4.82878 12.8383 5.10894 14.1042 5.66926 15.1834C6.25033 16.2625 7.04931 17.0926 8.06619 17.6737C9.08307 18.2548 10.266 18.5453 11.6149 18.5453C13.2751 18.5453 14.6344 18.1095 15.6928 17.2379C16.7512 16.3455 17.4464 15.1107 17.7784 13.5335H10.3075V10.2027H22.0742V14.0005C21.7837 15.5154 21.1611 16.9162 20.2065 18.2029C19.2519 19.4895 18.0171 20.5272 16.5021 21.3158C15.0079 22.0836 13.327 22.4675 11.4592 22.4675C9.36323 22.4675 7.46436 22.0006 5.76264 21.0667C4.08168 20.1121 2.75351 18.7943 1.77814 17.1134C0.823519 15.4324 0.346209 13.5232 0.346209 11.3856C0.346209 9.24811 0.823519 7.33887 1.77814 5.65791C2.75351 3.95619 4.08168 2.6384 5.76264 1.70453C7.46436 0.749911 9.35285 0.2726 11.4281 0.2726C13.8769 0.2726 16.0041 0.874426 17.8095 2.07808C19.615 3.26098 20.8602 4.93156 21.545 7.08984H16.5333Z" fill="#323142"/>
</svg>
